<mxfile host="app.diagrams.net" agent="Mozilla/5.0 (Windows NT 10.0; Win64; x64) AppleWebKit/537.36 (KHTML, like Gecko) Chrome/128.0.0.0 Safari/537.36" version="24.7.10">
  <diagram name="PÃ¡gina-1" id="SCioj7w52QhnpvawB8uw">
    <mxGraphModel grid="0" page="0" gridSize="10" guides="1" tooltips="1" connect="1" arrows="1" fold="1" pageScale="1" pageWidth="827" pageHeight="1169" math="0" shadow="0">
      <root>
        <mxCell id="0" />
        <mxCell id="1" parent="0" />
        <mxCell id="91R99Ed7YQECg51jT8Kr-1" value="Clientes" style="rounded=0;whiteSpace=wrap;html=1;" vertex="1" parent="1">
          <mxGeometry x="-19" y="258" width="105" height="78" as="geometry" />
        </mxCell>
        <mxCell id="91R99Ed7YQECg51jT8Kr-2" value="Meseros" style="whiteSpace=wrap;html=1;aspect=fixed;" vertex="1" parent="1">
          <mxGeometry x="-15" y="-9" width="80" height="80" as="geometry" />
        </mxCell>
        <mxCell id="91R99Ed7YQECg51jT8Kr-3" value="Ordenes" style="whiteSpace=wrap;html=1;aspect=fixed;" vertex="1" parent="1">
          <mxGeometry x="221" y="122" width="80" height="80" as="geometry" />
        </mxCell>
        <mxCell id="91R99Ed7YQECg51jT8Kr-4" value="Productos" style="whiteSpace=wrap;html=1;aspect=fixed;" vertex="1" parent="1">
          <mxGeometry x="665" y="-6.5" width="80" height="80" as="geometry" />
        </mxCell>
        <mxCell id="91R99Ed7YQECg51jT8Kr-5" value="Tipos_Productos" style="whiteSpace=wrap;html=1;aspect=fixed;" vertex="1" parent="1">
          <mxGeometry x="627" y="461" width="121" height="121" as="geometry" />
        </mxCell>
        <mxCell id="91R99Ed7YQECg51jT8Kr-10" value="" style="endArrow=none;html=1;rounded=0;fontSize=12;startSize=8;endSize=8;curved=1;exitX=1;exitY=0.5;exitDx=0;exitDy=0;entryX=0;entryY=1;entryDx=0;entryDy=0;" edge="1" parent="1" source="91R99Ed7YQECg51jT8Kr-1" target="91R99Ed7YQECg51jT8Kr-3">
          <mxGeometry width="50" height="50" relative="1" as="geometry">
            <mxPoint x="331" y="123" as="sourcePoint" />
            <mxPoint x="381" y="73" as="targetPoint" />
          </mxGeometry>
        </mxCell>
        <mxCell id="91R99Ed7YQECg51jT8Kr-12" value="1/N" style="text;html=1;align=center;verticalAlign=middle;whiteSpace=wrap;rounded=0;fontSize=16;" vertex="1" parent="1">
          <mxGeometry x="106" y="41" width="60" height="30" as="geometry" />
        </mxCell>
        <mxCell id="91R99Ed7YQECg51jT8Kr-14" value="" style="endArrow=none;html=1;rounded=0;fontSize=12;startSize=8;endSize=8;curved=1;entryX=0;entryY=0;entryDx=0;entryDy=0;exitX=1;exitY=0.5;exitDx=0;exitDy=0;" edge="1" parent="1" source="91R99Ed7YQECg51jT8Kr-2" target="91R99Ed7YQECg51jT8Kr-3">
          <mxGeometry width="50" height="50" relative="1" as="geometry">
            <mxPoint x="275" y="172" as="sourcePoint" />
            <mxPoint x="325" y="122" as="targetPoint" />
          </mxGeometry>
        </mxCell>
        <mxCell id="91R99Ed7YQECg51jT8Kr-15" value="1/N" style="text;html=1;align=center;verticalAlign=middle;whiteSpace=wrap;rounded=0;fontSize=16;rotation=0;" vertex="1" parent="1">
          <mxGeometry x="111" y="213" width="60" height="30" as="geometry" />
        </mxCell>
        <mxCell id="91R99Ed7YQECg51jT8Kr-18" value="" style="endArrow=none;html=1;rounded=0;fontSize=12;startSize=8;endSize=8;curved=1;entryX=1;entryY=0;entryDx=0;entryDy=0;exitX=-0.007;exitY=0.615;exitDx=0;exitDy=0;exitPerimeter=0;" edge="1" parent="1" source="91R99Ed7YQECg51jT8Kr-24" target="91R99Ed7YQECg51jT8Kr-3">
          <mxGeometry width="50" height="50" relative="1" as="geometry">
            <mxPoint x="597" y="236" as="sourcePoint" />
            <mxPoint x="301" y="202" as="targetPoint" />
          </mxGeometry>
        </mxCell>
        <mxCell id="91R99Ed7YQECg51jT8Kr-19" value="N/N" style="text;html=1;align=center;verticalAlign=middle;whiteSpace=wrap;rounded=0;fontSize=16;rotation=0;" vertex="1" parent="1">
          <mxGeometry x="315.5" y="54" width="60" height="30" as="geometry" />
        </mxCell>
        <mxCell id="91R99Ed7YQECg51jT8Kr-20" value="" style="endArrow=none;html=1;rounded=0;fontSize=12;startSize=8;endSize=8;curved=1;entryX=0.459;entryY=1.008;entryDx=0;entryDy=0;entryPerimeter=0;exitX=0.5;exitY=0;exitDx=0;exitDy=0;" edge="1" parent="1" target="91R99Ed7YQECg51jT8Kr-28" source="91R99Ed7YQECg51jT8Kr-5">
          <mxGeometry width="50" height="50" relative="1" as="geometry">
            <mxPoint x="406" y="494" as="sourcePoint" />
            <mxPoint x="550.0000000000001" y="494.1600000000001" as="targetPoint" />
          </mxGeometry>
        </mxCell>
        <mxCell id="91R99Ed7YQECg51jT8Kr-22" style="edgeStyle=none;curved=1;rounded=0;orthogonalLoop=1;jettySize=auto;html=1;exitX=0.25;exitY=1;exitDx=0;exitDy=0;fontSize=12;startSize=8;endSize=8;" edge="1" parent="1" source="91R99Ed7YQECg51jT8Kr-12" target="91R99Ed7YQECg51jT8Kr-12">
          <mxGeometry relative="1" as="geometry" />
        </mxCell>
        <mxCell id="91R99Ed7YQECg51jT8Kr-28" value="Categorias_Productos&amp;nbsp;" style="whiteSpace=wrap;html=1;aspect=fixed;" vertex="1" parent="1">
          <mxGeometry x="624" y="225" width="133" height="133" as="geometry" />
        </mxCell>
        <mxCell id="91R99Ed7YQECg51jT8Kr-24" value="Productos&lt;div&gt;Ordenes&lt;/div&gt;" style="ellipse;whiteSpace=wrap;html=1;" vertex="1" parent="1">
          <mxGeometry x="422" y="15" width="149" height="78" as="geometry" />
        </mxCell>
        <mxCell id="4oiaehjj69Z3NXYvNZ9_-1" value="" style="endArrow=none;html=1;rounded=0;fontSize=12;startSize=8;endSize=8;curved=1;entryX=1;entryY=0.5;entryDx=0;entryDy=0;" edge="1" parent="1" source="91R99Ed7YQECg51jT8Kr-4" target="91R99Ed7YQECg51jT8Kr-24">
          <mxGeometry width="50" height="50" relative="1" as="geometry">
            <mxPoint x="598" y="368" as="sourcePoint" />
            <mxPoint x="599" y="138" as="targetPoint" />
          </mxGeometry>
        </mxCell>
        <mxCell id="4oiaehjj69Z3NXYvNZ9_-5" value="1/N" style="text;html=1;align=center;verticalAlign=middle;whiteSpace=wrap;rounded=0;fontSize=16;rotation=0;" vertex="1" parent="1">
          <mxGeometry x="691" y="392" width="60" height="30" as="geometry" />
        </mxCell>
        <mxCell id="4oiaehjj69Z3NXYvNZ9_-7" value="" style="endArrow=none;html=1;rounded=0;fontSize=12;startSize=8;endSize=8;curved=1;exitX=0.425;exitY=0.994;exitDx=0;exitDy=0;exitPerimeter=0;entryX=0.551;entryY=0.014;entryDx=0;entryDy=0;entryPerimeter=0;" edge="1" parent="1" source="91R99Ed7YQECg51jT8Kr-4" target="91R99Ed7YQECg51jT8Kr-28">
          <mxGeometry width="50" height="50" relative="1" as="geometry">
            <mxPoint x="138" y="499" as="sourcePoint" />
            <mxPoint x="283" y="496" as="targetPoint" />
          </mxGeometry>
        </mxCell>
        <mxCell id="4oiaehjj69Z3NXYvNZ9_-8" value="1/N" style="text;html=1;align=center;verticalAlign=middle;whiteSpace=wrap;rounded=0;fontSize=16;rotation=0;" vertex="1" parent="1">
          <mxGeometry x="708" y="152" width="60" height="30" as="geometry" />
        </mxCell>
        <mxCell id="CavSu181lxQRlmLLOmwt-2" value="- ID_Mesero&lt;div&gt;- Nombre_Mesero&lt;/div&gt;&lt;div&gt;&lt;br&gt;&lt;/div&gt;" style="text;html=1;align=center;verticalAlign=middle;whiteSpace=wrap;rounded=0;" vertex="1" parent="1">
          <mxGeometry x="-152" y="-11" width="126" height="89" as="geometry" />
        </mxCell>
        <mxCell id="CavSu181lxQRlmLLOmwt-3" value="- ID_Categoria&lt;div&gt;&lt;span style=&quot;background-color: initial;&quot;&gt;- Nombre_Categoria&lt;/span&gt;&lt;/div&gt;" style="text;html=1;align=center;verticalAlign=middle;whiteSpace=wrap;rounded=0;" vertex="1" parent="1">
          <mxGeometry x="760" y="253.5" width="121" height="76" as="geometry" />
        </mxCell>
        <mxCell id="CavSu181lxQRlmLLOmwt-4" value="- ID_Cliente&lt;div&gt;&lt;div&gt;- Tipo_Cliente&lt;/div&gt;&lt;div&gt;&lt;br&gt;&lt;/div&gt;&lt;/div&gt;" style="text;html=1;align=center;verticalAlign=middle;whiteSpace=wrap;rounded=0;" vertex="1" parent="1">
          <mxGeometry x="-138" y="265" width="112" height="74" as="geometry" />
        </mxCell>
        <mxCell id="CavSu181lxQRlmLLOmwt-5" value="- ID_Orden&lt;div&gt;- Mesa_Orden&lt;br&gt;&lt;div&gt;- Fecha_Orden&lt;/div&gt;&lt;div&gt;- Precio_Orden&lt;/div&gt;&lt;div&gt;&lt;br&gt;&lt;/div&gt;&lt;/div&gt;" style="text;html=1;align=center;verticalAlign=middle;whiteSpace=wrap;rounded=0;" vertex="1" parent="1">
          <mxGeometry x="282" y="195" width="116" height="73" as="geometry" />
        </mxCell>
        <mxCell id="CavSu181lxQRlmLLOmwt-6" value="- ID_Producto&lt;div&gt;- Nombre_Producto&lt;/div&gt;&lt;div&gt;- Costo_Producto&lt;/div&gt;" style="text;html=1;align=center;verticalAlign=middle;whiteSpace=wrap;rounded=0;" vertex="1" parent="1">
          <mxGeometry x="798" y="-4" width="114" height="85" as="geometry" />
        </mxCell>
        <mxCell id="CavSu181lxQRlmLLOmwt-7" value="- ID_Tipo&lt;div&gt;- Nombre_Tipo&lt;/div&gt;" style="text;html=1;align=center;verticalAlign=middle;whiteSpace=wrap;rounded=0;" vertex="1" parent="1">
          <mxGeometry x="703" y="458" width="196" height="136" as="geometry" />
        </mxCell>
        <mxCell id="vIIKW5KShB8FCqZlL6Hv-2" value="- ID_Producto&lt;div&gt;&lt;div&gt;- ID_Orden&lt;/div&gt;&lt;div&gt;&lt;br&gt;&lt;/div&gt;&lt;/div&gt;" style="text;html=1;align=center;verticalAlign=middle;whiteSpace=wrap;rounded=0;" vertex="1" parent="1">
          <mxGeometry x="430" y="-44" width="112" height="74" as="geometry" />
        </mxCell>
      </root>
    </mxGraphModel>
  </diagram>
</mxfile>
